<svg version="1.0" xmlns="http://www.w3.org/2000/svg" width="682.667" height="682.667" viewBox="0 0 512 512"><path d="M334.5 1.7c-5.5.7-11.6 1.2-13.5.9-1.9-.2-10.7.5-19.5 1.5-42 5.1-57.3 7.7-87.1 14.9-8.9 2.1-30.2 6.4-47.5 9.4-17.3 3.1-37.9 7.2-45.9 9.2-8 1.9-19.5 4.4-25.6 5.4-20.4 3.3-39.1 13.7-56 31.1-10.3 10.7-14.2 16.7-19.2 30.4-8 21.8-8.4 23.9-9 39.7-.4 13.6-.3 15.3 1.8 21 1.3 3.5 3.2 7.5 4.2 9s2.7 5.1 3.7 8c1 2.9 3.5 8.7 5.6 12.8 6 11.9 6.7 14.6 7.4 28.7.9 16.7 1.9 18.4 15 26.3 14.3 8.5 14.4 8.7 16.5 17.7 5.3 22.6 12.3 41 22.7 59.6l6 10.8-.7 9.3c-.6 8.7-.5 9.7 1.9 15 1.7 3.6 5.5 8.7 10.6 14l7.9 8.3 3.7 11.9c11.3 36.5 17.6 52.2 25.5 63 4.9 6.5 8.7 9.7 16.9 14 3.6 1.9 9 5 11.8 6.8 2.9 1.9 8.5 4.4 12.3 5.6 6.2 2 8.4 2.2 18.8 1.7 13.8-.6 31-4.1 47-9.6l11.2-3.8v5.1c0 2.9-.9 8.6-2 12.7-2.6 9.9-2.6 14.9.1 17.8 4 4.3 11.6.5 22.7-11.3 4.8-5.2 6.5-7.9 7.8-12.3l1.7-5.7 2 4c4.8 9.4 10.4 14 15.3 12.8 5.3-1.3 6.6-9.6 4-25.4-1.5-9-1.4-10 1.1-10 .8 0 6.5-1.5 12.6-3.4 18.7-5.7 81.3-23.3 96.7-27.1 20.4-5.1 41.8-11.1 48.1-13.4 7.3-2.8 12.2-7 15.3-13.3 5.9-11.9 1.4-22.6-12.9-30.8-4.1-2.4-6.6-4.8-9.2-8.7-1.9-3.1-4.4-5.8-5.4-6-2.4-.7-2.4-2.1.1-11.2 2.3-8 5.1-14.1 11.4-24.4 3.8-6.3 4.5-6.9 9.3-8.3 12-3.5 21.3-14.7 21.3-25.6 0-3.4-1.9-8.2-8.9-22.3-4.8-9.9-11.7-23-15.3-29-12-20.2-20.1-34.9-29.6-53.5-5.2-10.2-12.3-23.9-15.6-30.5-3.4-6.6-7.6-14.2-9.4-16.9-1.7-2.7-4.6-8.3-6.3-12.5-1.7-4.2-4.4-10.2-6-13.3-1.6-3.2-3.8-8.2-4.9-11.1-1.1-2.9-3.9-8.4-6.1-12.2-3.9-6.4-5.4-9.8-14.9-33.6-2.1-5.3-5.4-12.8-7.3-16.6-1.9-3.8-4.4-9.6-5.5-12.9-2.5-7.6-9.7-22.7-11.4-24.1-1.8-1.4-13.5-1.2-25.3.4zm21.8 10c.8 1.6 2.2 5.9 3.1 9.8.9 3.8 2.4 9.6 3.3 12.8 1 3.5 1.3 6.1.7 6.7-.5.5-4.1.3-8.9-.6-8.5-1.6-24.2-9.1-31.1-14.7-2.8-2.3-7.4-9.2-7.4-11 0-.2 3.9-.7 8.8-1.1 4.8-.3 12.5-1.5 17.2-2.5 11.8-2.6 12.7-2.6 14.3.6zm-30.5 68.5c3.4 7.4 13 23 18.2 29.6 1.1 1.3 3.6 6.6 5.6 11.9 2 5.2 5.2 11.7 7.1 14.5 5.2 7.5 4.8 7.8-10.2 10.4-7.2 1.3-17.9 3.6-24 5.3-20.5 5.7-63.3 13.9-81.5 15.6-9.2.9-26.6 3.4-28.4 4.1-1.1.4-1.7-.2-2.1-2.3-1.8-8.8-8.6-25.7-13.4-33.2-1.7-2.6-4.1-8.3-5.5-12.6-1.3-4.4-3.9-11.8-5.6-16.5-4.2-11.2-4.3-12.4-.5-12.8 1.6-.2 4.7.1 6.9.8 2.7.8 4.2.8 4.9.1.6-.6 2.2-1.1 3.5-1.1 1.3 0 15-2.5 30.4-5.6 15.4-3 34.9-6.6 43.3-7.9 8.4-1.3 19.1-3.4 23.7-4.6 4.6-1.2 11.7-2.5 15.8-2.9 4.1-.4 7.6-.8 7.8-.9.1 0 1.9 3.6 4 8.1zm-201.8 72c3.6 5.8 7 12.7 8.2 16.9l2.2 7.2-2.8 2.3c-3.7 3.2-6.5 3.2-5.9 0 .7-3.4-1-3.9-7-2.2-6.6 1.9-11 4.8-24.4 16.2-10 8.4-14.3 13.5-20.5 24.4-2.8 4.9-7.1 17.9-8.3 24.7-.4 2.4-1 4.5-1.4 4.8-.5.2-4.3-2.6-8.5-6.2-5.6-5-7.6-7.4-7.7-9.3 0-1.4-.1-6.9-.1-12.2v-9.7l5.2-9.8c8.2-15.3 16.7-27.8 22.6-33.2 3.5-3.2 9.5-7 16.7-10.5 10.9-5.3 13.9-7.5 14.9-10.5.5-1.7 7.7-4.1 9.5-3.2.7.4 3.9 5 7.3 10.3zm354.1 119.5c2.7 6 6.4 12.5 8 14.6l3.1 3.8-3.8 4.6c-2.2 2.7-5.6 5.4-8.3 6.6-4.7 2.1-24.7 6.4-25.6 5.5-1.3-1.2 1.7-16.6 4.1-21.3 1.4-2.8 3.2-6.7 4-8.8 1.6-4.6 10.2-15.7 12.1-15.7.7 0 3.6 4.7 6.4 10.7zM163.8 278c1.8 6.3 4.4 15 5.8 19.4 2.7 8.3 2.6 10.6-.3 10.6-1 0-4.5 1.3-7.8 2.9-9.3 4.3-20.5 17.6-33 39-6.6 11.3-11.4 16.1-15.9 16.1-4.1 0-8-4-9.6-10.1-1-3.6-.8-4.4 2-9.3 1.6-2.9 3-6.3 3-7.4 0-1.2 1.9-6.3 4.1-11.4 2.3-5.1 5.4-12.4 7-16.1 3.2-7.7 9.4-15.9 19.8-26.2 6.9-6.8 8.3-8.9 6-9.7-1.6-.5 12.2-9.9 14.1-9.6 1 .2 2.6 4.2 4.8 11.8zM463 321.7c-1.1 1.6-3.5 4.6-5.2 6.8-4.5 5.9-9.3 16.9-11.3 25.8-2 9.1-1.5 19 1.5 27.7 2.4 6.9 2.6 6.7-12.9 11.5-6.4 1.9-23.1 7.6-37.1 12.5-29.3 10.2-40 13.5-63 18.9-17.2 4.1-20.6 5.1-27.8 8.2l-4.3 1.9-4.1-8.5c-2.2-4.7-3.8-8.8-3.5-9.1.3-.3 9-2.1 19.4-4 27.5-5.1 66.8-14.6 69-16.7 1.2-1.2-1-2.7-4-2.7-1.8 0-8.9 1.4-15.7 3.1-21.5 5.2-38.9 8.9-55.5 11.9-15 2.6-16.2 2.7-18.7 1.2-2.6-1.5-3.4-1.5-12.5.7-5.4 1.3-13.3 3.7-17.5 5.3-4.5 1.7-10 3-13 3.1-2.9.1-5.6.6-5.9 1-.7.9-12.2 3.7-12.8 3.1-.2-.2.1-.4.7-.4.7 0 1.2-.5 1.2-1 0-2-7.5-.9-25.8 3.5-10.2 2.5-18.8 4.7-19 5-.2.2-.1.8.2 1.3.3.6 4.7 0 10.8-1.5 12.1-2.9 28.8-6.3 29.7-6.2.3.1-1.9.9-4.9 1.9-3 .9-5.6 2.2-5.8 2.9-.5 1.6 5 1.4 14.8-.5 5.7-1 8.5-1.2 9.4-.5.7.6 3 1 5 .8 3.6-.2 3.9 0 5.6 4.3.9 2.5 2.1 5.9 2.4 7.7.7 3.1.6 3.2-3.1 3.8-2.1.4-9 2.1-15.3 3.8-8.9 2.3-14.3 3.1-23.5 3.5-12 .4-12 .4-20.7-3.3-14.7-6.2-17.3-10.5-17.2-28.1 0-10 .3-11.6 2.8-16.7 2.9-6.1 12.6-15.8 20.2-20.2 5.9-3.5 42.3-17.8 50.4-19.8 15.1-3.8 27.9-6.5 33.5-7.1 17.9-2 36.2-5 45.5-7.6 5.8-1.5 14.3-3.5 18.9-4.4 4.6-.9 12.5-2.7 17.5-4.1 5-1.3 13.2-3.1 18.1-4.1 5-.9 15.3-3.1 23-4.9 7.7-1.9 19-3.8 25-4.4 6.3-.6 16.3-2.5 23.5-4.5 6.9-1.9 12.9-3.4 13.3-3.5.5-.1-.1 1.1-1.3 2.6z"/><path d="M230 129.5c0 .8.2 1.5.4 1.5s.6-.7 1-1.5c.3-.8.1-1.5-.4-1.5-.6 0-1 .7-1 1.5zM398 340.4c-13.1 2-78 18.3-79.7 20-.3.2-.2.9.1 1.5.4.6 4.7-.1 11.4-1.9 26.5-7.1 58.9-14.3 72.7-16.1 8.2-1.1 15.1-2.2 15.4-2.4 1.9-1.9-10.2-2.5-19.9-1.1zM411 348.9c-5.7 3.2-45.7 12.5-95 22.1-20.1 3.9-44.4 8.9-54 11-9.6 2.1-21.7 4.5-26.9 5.4-8.5 1.3-12.3 2.7-11 4.1.9.8 16.1-1.5 34.4-5.2 9.4-1.9 34.8-6.7 56.5-10.8 70.5-13.3 99-20.9 99-26.2 0-1.5-.8-1.6-3-.4zM262 368.1c-36.7 9.4-53 14.5-53 16.9 0 1.4 2.2 1.2 6.6-.6 3.9-1.6 24-7.1 53.4-14.5 9.1-2.3 16.9-4.6 17.5-5 2.2-2.1-10.1-.4-24.5 3.2zM436 366.2c-25.9 5.5-42.7 8.9-48.5 9.8-7.5 1.2-9.6 2.3-7.8 4.1 2.2 2.2 58.3-9.7 61.8-13.2 2.2-2.2 1.7-2.2-5.5-.7zM357 381.6c-9.3 2.3-28.4 6.3-52.5 10.9-12.6 2.5-26.6 5.4-31 6.5-4.4 1.1-13.8 2.9-21 4-22 3.4-40.5 7.2-40.5 8.2 0 .6.6.8 1.4.5.8-.3 12.6-2 26.3-3.7 13.6-1.7 29.5-4.2 35.3-5.5 5.8-1.3 15.9-3.3 22.5-4.5 6.6-1.1 19-3.6 27.5-5.5s20.2-4.3 25.8-5.4c10.3-2 15.8-4.3 14.7-6.1-.7-1.2-1.5-1.2-8.5.6zM201.5 405.6c-4.9 1.9-10.7 3.7-12.8 4-5.1.9-5.7 2.4-1 2.4 4.4 0 29.3-7.7 29.3-9.1 0-1.8-6.7-.7-15.5 2.7zM231 434.7c-4.9.5-20.9 4.4-21.4 5.2-.3.4-.1 1.2.3 1.9.6.9 1.9.9 5.7-.2 2.7-.8 7.8-2 11.4-2.6 3.5-.7 7.2-1.6 8.2-2.1 2.1-1.1 2.4-3 .6-2.7-.7 0-2.9.3-4.8.5z"/></svg>