<?xml version="1.0" standalone="no"?>
<!DOCTYPE svg PUBLIC "-//W3C//DTD SVG 20010904//EN"
 "http://www.w3.org/TR/2001/REC-SVG-20010904/DTD/svg10.dtd">
<svg version="1.0" xmlns="http://www.w3.org/2000/svg"
 width="512.000000pt" height="512.000000pt" viewBox="0 0 512.000000 512.000000"
 preserveAspectRatio="xMidYMid meet">

<g transform="translate(0.000000,512.000000) scale(0.100000,-0.100000)"
fill="#000000" stroke="none">
<path d="M3345 5103 c-55 -7 -116 -12 -135 -9 -19 2 -107 -5 -195 -15 -420
-51 -573 -77 -871 -149 -89 -21 -302 -64 -475 -94 -173 -31 -379 -72 -459 -92
-80 -19 -195 -44 -256 -54 -204 -33 -391 -137 -560 -311 -103 -107 -142 -167
-192 -304 -80 -218 -84 -239 -90 -397 -4 -136 -3 -153 18 -210 13 -35 32 -75
42 -90 10 -15 27 -51 37 -80 10 -29 35 -87 56 -128 60 -119 67 -146 74 -287 9
-167 19 -184 150 -263 143 -85 144 -87 165 -177 53 -226 123 -410 227 -596
l60 -108 -7 -93 c-6 -87 -5 -97 19 -150 17 -36 55 -87 106 -140 l79 -83 37
-119 c113 -365 176 -522 255 -630 49 -65 87 -97 169 -140 36 -19 90 -50 118
-68 29 -19 85 -44 123 -56 62 -20 84 -22 188 -17 138 6 310 41 470 96 l112 38
0 -51 c0 -29 -9 -86 -20 -127 -26 -99 -26 -149 1 -178 40 -43 116 -5 227 113
48 52 65 79 78 123 l17 57 20 -40 c48 -94 104 -140 153 -128 53 13 66 96 40
254 -15 90 -14 100 11 100 8 0 65 15 126 34 187 57 813 233 967 271 204 51
418 111 481 134 73 28 122 70 153 133 59 119 14 226 -129 308 -41 24 -66 48
-92 87 -19 31 -44 58 -54 60 -24 7 -24 21 1 112 23 80 51 141 114 244 38 63
45 69 93 83 120 35 213 147 213 256 0 34 -19 82 -89 223 -48 99 -117 230 -153
290 -120 202 -201 349 -296 535 -52 102 -123 239 -156 305 -34 66 -76 142 -94
169 -17 27 -46 83 -63 125 -17 42 -44 102 -60 133 -16 32 -38 82 -49 111 -11
29 -39 84 -61 122 -39 64 -54 98 -149 336 -21 53 -54 128 -73 166 -19 38 -44
96 -55 129 -25 76 -97 227 -114 241 -18 14 -135 12 -253 -4z m218 -100 c8 -16
22 -59 31 -98 9 -38 24 -96 33 -128 10 -35 13 -61 7 -67 -5 -5 -41 -3 -89 6
-85 16 -242 91 -311 147 -28 23 -74 92 -74 110 0 2 39 7 88 11 48 3 125 15
172 25 118 26 127 26 143 -6z m-305 -685 c34 -74 130 -230 182 -296 11 -13 36
-66 56 -119 20 -52 52 -117 71 -145 52 -75 48 -78 -102 -104 -72 -13 -179 -36
-240 -53 -205 -57 -633 -139 -815 -156 -92 -9 -266 -34 -284 -41 -11 -4 -17 2
-21 23 -18 88 -86 257 -134 332 -17 26 -41 83 -55 126 -13 44 -39 118 -56 165
-42 112 -43 124 -5 128 16 2 47 -1 69 -8 27 -8 42 -8 49 -1 6 6 22 11 35 11
13 0 150 25 304 56 154 30 349 66 433 79 84 13 191 34 237 46 46 12 117 25
158 29 41 4 76 8 78 9 1 0 19 -36 40 -81z m-2018 -720 c36 -58 70 -127 82
-169 l22 -72 -28 -23 c-37 -32 -65 -32 -59 0 7 34 -10 39 -70 22 -66 -19 -110
-48 -244 -162 -100 -84 -143 -135 -205 -244 -28 -49 -71 -179 -83 -247 -4 -24
-10 -45 -14 -48 -5 -2 -43 26 -85 62 -56 50 -76 74 -77 93 0 14 -1 69 -1 122
l0 97 52 98 c82 153 167 278 226 332 35 32 95 70 167 105 109 53 139 75 149
105 5 17 77 41 95 32 7 -4 39 -50 73 -103z m3541 -1195 c27 -60 64 -125 80
-146 l31 -38 -38 -46 c-22 -27 -56 -54 -83 -66 -47 -21 -247 -64 -256 -55 -13
12 17 166 41 213 14 28 32 67 40 88 16 46 102 157 121 157 7 0 36 -47 64 -107z
m-3143 -63 c18 -63 44 -150 58 -194 27 -83 26 -106 -3 -106 -10 0 -45 -13 -78
-29 -93 -43 -205 -176 -330 -390 -66 -113 -114 -161 -159 -161 -41 0 -80 40
-96 101 -10 36 -8 44 20 93 16 29 30 63 30 74 0 12 19 63 41 114 23 51 54 124
70 161 32 77 94 159 198 262 69 68 83 89 60 97 -16 5 122 99 141 96 10 -2 26
-42 48 -118z m2992 -437 c-11 -16 -35 -46 -52 -68 -45 -59 -93 -169 -113 -258
-20 -91 -15 -190 15 -277 24 -69 26 -67 -129 -115 -64 -19 -231 -76 -371 -125
-293 -102 -400 -135 -630 -189 -172 -41 -206 -51 -278 -82 l-43 -19 -41 85
c-22 47 -38 88 -35 91 3 3 90 21 194 40 275 51 668 146 690 167 12 12 -10 27
-40 27 -18 0 -89 -14 -157 -31 -215 -52 -389 -89 -555 -119 -150 -26 -162 -27
-187 -12 -26 15 -34 15 -125 -7 -54 -13 -133 -37 -175 -53 -45 -17 -100 -30
-130 -31 -29 -1 -56 -6 -59 -10 -7 -9 -122 -37 -128 -31 -2 2 1 4 7 4 7 0 12
5 12 10 0 20 -75 9 -258 -35 -102 -25 -188 -47 -190 -50 -2 -2 -1 -8 2 -13 3
-6 47 0 108 15 121 29 288 63 297 62 3 -1 -19 -9 -49 -19 -30 -9 -56 -22 -58
-29 -5 -16 50 -14 148 5 57 10 85 12 94 5 7 -6 30 -10 50 -8 36 2 39 0 56 -43
9 -25 21 -59 24 -77 7 -31 6 -32 -31 -38 -21 -4 -90 -21 -153 -38 -89 -23
-143 -31 -235 -35 -120 -4 -120 -4 -207 33 -147 62 -173 105 -172 281 0 100 3
116 28 167 29 61 126 158 202 202 59 35 423 178 504 198 151 38 279 65 335 71
179 20 362 50 455 76 58 15 143 35 189 44 46 9 125 27 175 41 50 13 132 31
181 41 50 9 153 31 230 49 77 19 190 38 250 44 63 6 163 25 235 45 69 19 129
34 133 35 5 1 -1 -11 -13 -26z"/>
<path d="M2300 3825 c0 -8 2 -15 4 -15 2 0 6 7 10 15 3 8 1 15 -4 15 -6 0 -10
-7 -10 -15z"/>
<path d="M3980 1716 c-131 -20 -780 -183 -797 -200 -3 -2 -2 -9 1 -15 4 -6 47
1 114 19 265 71 589 143 727 161 82 11 151 22 154 24 19 19 -102 25 -199 11z"/>
<path d="M4110 1631 c-57 -32 -457 -125 -950 -221 -201 -39 -444 -89 -540
-110 -96 -21 -217 -45 -269 -54 -85 -13 -123 -27 -110 -41 9 -8 161 15 344 52
94 19 348 67 565 108 705 133 990 209 990 262 0 15 -8 16 -30 4z"/>
<path d="M2620 1439 c-367 -94 -530 -145 -530 -169 0 -14 22 -12 66 6 39 16
240 71 534 145 91 23 169 46 175 50 22 21 -101 4 -245 -32z"/>
<path d="M4360 1458 c-259 -55 -427 -89 -485 -98 -75 -12 -96 -23 -78 -41 22
-22 583 97 618 132 22 22 17 22 -55 7z"/>
<path d="M3570 1304 c-93 -23 -284 -63 -525 -109 -126 -25 -266 -54 -310 -65
-44 -11 -138 -29 -210 -40 -220 -34 -405 -72 -405 -82 0 -6 6 -8 14 -5 8 3
126 20 263 37 136 17 295 42 353 55 58 13 159 33 225 45 66 11 190 36 275 55
85 19 202 43 258 54 103 20 158 43 147 61 -7 12 -15 12 -85 -6z"/>
<path d="M2015 1064 c-49 -19 -107 -37 -128 -40 -51 -9 -57 -24 -10 -24 44 0
293 77 293 91 0 18 -67 7 -155 -27z"/>
<path d="M2310 773 c-49 -5 -209 -44 -214 -52 -3 -4 -1 -12 3 -19 6 -9 19 -9
57 2 27 8 78 20 114 26 35 7 72 16 82 21 21 11 24 30 6 27 -7 0 -29 -3 -48 -5z"/>
</g>
</svg>
